# xmcd CD database file
#
# Track frame offsets:
#	150
#	17960
#	41717
#	60910
#	80700
#	96852
#	110677
#	128740
#	142672
#	159327
#
# Disc length: 2322 seconds
#
# Revision: 4
# Processed by: cddbd v1.5.2PL0 Copyright (c) Steve Scherf et al.
# Submitted via: CDex 1.50beta10
#
DISCID=7b09100a
DTITLE=Tammy Wynette - Without Walls
DYEAR=1994
DGENRE=Country
TTITLE0=If It's The Last Thing I Do
TTITLE1=A Woman's Needs (with Elton John)
TTITLE2=Every Breath You Take (with Sting)
TTITLE3=If You Were To Wake Up (with Lyle Lovett)
TTITLE4=Glass Houses (with Joe Diffie)
TTITLE5=Girl Thang (with Wynonna)
TTITLE6=This Love (with Cliff Richard)
TTITLE7=I Second That Emotion (with Smokey Robinson)
TTITLE8=All I Am To You (with Aaron Neville) 
TTITLE9=What Do They Know
EXTD=Epic 1994\nEPC 474800 2 YEAR: 1994
EXTT0=
EXTT1=
EXTT2=
EXTT3=
EXTT4=
EXTT5=
EXTT6=
EXTT7=
EXTT8=
EXTT9=
PLAYORDER=
